<svg width="24" height="24" viewBox="0 0 24 24" fill="none" xmlns="http://www.w3.org/2000/svg">
<g id="&#240;&#159;&#166;&#134; emoji &#34;cinema&#34;">
<path id="Vector" d="M22.4 24H1.6C0.716 24 0 23.284 0 22.4V1.6C0 0.716 0.716 0 1.6 0H22.4C23.284 0 24 0.716 24 1.6V22.4C24 23.284 23.284 24 22.4 24Z" fill="url(#paint0_linear_42_1714)"/>
<path id="Vector_2" opacity="0.2" d="M22.4 0.6C22.952 0.6 23.4 1.048 23.4 1.6V22.4C23.4 22.952 22.952 23.4 22.4 23.4H1.6C1.048 23.4 0.6 22.952 0.6 22.4V1.6C0.6 1.048 1.048 0.6 1.6 0.6H22.4ZM22.4 0H1.6C0.716 0 0 0.716 0 1.6V22.4C0 23.284 0.716 24 1.6 24H22.4C23.284 24 24 23.284 24 22.4V1.6C24 0.716 23.284 0 22.4 0Z" fill="#424242"/>
<g id="Group" opacity="0.2">
<path id="Vector_3" d="M3.90587 11.494C4.01787 11.494 4.13187 11.52 4.24387 11.574L8.43987 14.516V12.628C8.43987 12.004 8.94987 11.494 9.57387 11.494H19.0179C19.6419 11.494 20.1519 12.004 20.1519 12.628V19.428C20.1519 20.052 19.6419 20.562 19.0179 20.562H9.57187C8.94787 20.562 8.43787 20.052 8.43787 19.428V17.54L4.24387 20.48C4.13387 20.536 4.01787 20.56 3.90587 20.56C3.50987 20.56 3.14987 20.242 3.14987 19.804V12.25C3.14987 11.812 3.50987 11.494 3.90587 11.494ZM19.0159 10.894H9.57187C8.61587 10.894 7.83787 11.672 7.83787 12.628V13.364L4.58787 11.084C4.56387 11.068 4.53787 11.052 4.51187 11.038C4.31987 10.942 4.11587 10.894 3.90587 10.894C3.55387 10.894 3.21787 11.03 2.96187 11.276C2.69587 11.532 2.54987 11.878 2.54987 12.25V19.804C2.54987 20.552 3.15787 21.16 3.90587 21.16C4.11587 21.16 4.31987 21.112 4.51187 21.016C4.53787 21.002 4.56387 20.988 4.58787 20.97L7.83787 18.69V19.426C7.83787 20.382 8.61587 21.16 9.57187 21.16H19.0159C19.9719 21.16 20.7499 20.382 20.7499 19.426V12.626C20.7499 11.672 19.9719 10.894 19.0159 10.894Z" fill="#424242"/>
<path id="Vector_4" d="M10.9539 3.44003C13.2199 3.44003 15.0579 5.27803 15.0579 7.54403C15.0579 9.81003 13.2199 11.648 10.9539 11.648C8.68788 11.648 6.84988 9.81003 6.84988 7.54403C6.84988 5.27803 8.68788 3.44003 10.9539 3.44003ZM10.9539 2.84003C8.35988 2.84003 6.24988 4.95003 6.24988 7.54403C6.24988 10.138 8.35988 12.248 10.9539 12.248C13.5479 12.248 15.6579 10.138 15.6579 7.54403C15.6579 4.95003 13.5479 2.84003 10.9539 2.84003Z" fill="#424242"/>
<path id="Vector_5" d="M17.9778 5.902C19.5638 5.902 20.8498 7.188 20.8498 8.774C20.8498 10.36 19.5638 11.646 17.9778 11.646C16.3918 11.646 15.1058 10.36 15.1058 8.774C15.1058 7.188 16.3898 5.902 17.9778 5.902ZM17.9778 5.302C16.0638 5.302 14.5058 6.86 14.5058 8.774C14.5058 10.688 16.0638 12.246 17.9778 12.246C19.8918 12.246 21.4498 10.688 21.4498 8.774C21.4498 6.86 19.8918 5.302 17.9778 5.302Z" fill="#424242"/>
</g>
<g id="Group_2">
<path id="Vector_6" d="M19.016 11.494H9.57196C8.94796 11.494 8.43796 12.004 8.43796 12.628V14.516L4.24396 11.574C3.74196 11.322 3.14996 11.688 3.14996 12.25V19.804C3.14996 20.366 3.74196 20.73 4.24396 20.48L8.43996 17.538V19.426C8.43996 20.05 8.94996 20.56 9.57396 20.56H19.018C19.642 20.56 20.152 20.05 20.152 19.426V12.626C20.15 12.004 19.64 11.494 19.016 11.494Z" fill="#FAFAFA"/>
<path id="Vector_7" d="M10.954 11.648C13.2206 11.648 15.058 9.81058 15.058 7.544C15.058 5.27743 13.2206 3.44 10.954 3.44C8.6874 3.44 6.84998 5.27743 6.84998 7.544C6.84998 9.81058 8.6874 11.648 10.954 11.648Z" fill="#FAFAFA"/>
<path id="Vector_8" d="M17.978 11.648C19.5641 11.648 20.85 10.3622 20.85 8.77599C20.85 7.18983 19.5641 5.90399 17.978 5.90399C16.3918 5.90399 15.106 7.18983 15.106 8.77599C15.106 10.3622 16.3918 11.648 17.978 11.648Z" fill="#FAFAFA"/>
</g>
</g>
<defs>
<linearGradient id="paint0_linear_42_1714" x1="12" y1="0.05" x2="12" y2="23.982" gradientUnits="userSpaceOnUse">
<stop stop-color="#FFAB40"/>
<stop offset="1" stop-color="#FF6D00"/>
</linearGradient>
</defs>
</svg>
