<svg width="24" height="24" viewBox="0 0 24 24" fill="none" xmlns="http://www.w3.org/2000/svg">
<g id="&#240;&#159;&#166;&#134; emoji &#34;party popper&#34;">
<path id="Vector" d="M0.490404 23.8545C0.952375 24.3465 2.8552 23.4885 4.35712 22.8005C5.48253 22.2865 9.98624 20.4704 12.2249 19.5284C12.8293 19.2744 13.7085 18.9424 14.3414 18.1244C14.9031 17.3964 16.3928 14.3043 13.393 11.1722C10.3485 7.99215 7.21238 8.87017 6.04015 9.68618C5.35025 10.1662 4.78856 11.2482 4.53621 11.7982C3.46981 14.1223 1.94958 18.3804 1.33091 20.0544C0.877076 21.2884 0.0325043 23.3665 0.490404 23.8545Z" fill="#FFC107"/>
<g id="Group">
<path id="Vector_2" d="M4.2353 12.4983C4.26379 12.8463 4.33502 13.4123 4.57923 14.5023C4.74611 15.2504 5.01882 16.0344 5.24064 16.5524C5.90613 18.1104 6.84024 18.7384 7.78657 19.2424C9.39431 20.0985 10.4872 20.2585 10.4872 20.2585L9.17655 20.7845C9.17655 20.7845 8.38286 20.6225 7.30018 20.0985C6.26837 19.5984 5.19384 18.7524 4.40828 17.0964C4.06842 16.3784 3.87101 15.6824 3.75705 15.1303C3.61662 14.4463 3.59424 14.0583 3.59424 14.0583L4.2353 12.4983Z" fill="#FF8F00"/>
<path id="Vector_3" d="M2.62546 16.5543C2.62546 16.5543 2.78827 17.8523 3.87909 19.4904C5.15714 21.4064 6.94194 21.7204 6.94194 21.7204L5.75546 22.2004C5.75546 22.2004 4.43061 21.8024 3.17087 20.1124C2.38532 19.0584 2.16553 17.7983 2.16553 17.7983L2.62546 16.5543Z" fill="#FF8F00"/>
<path id="Vector_4" d="M1.4958 19.6304C1.4958 19.6304 1.79293 20.7505 2.44416 21.5865C3.21954 22.5845 4.20657 22.8745 4.20657 22.8745L3.29687 23.2705C3.29687 23.2705 2.60697 23.1285 1.85194 22.1885C1.27804 21.4745 1.11523 20.6545 1.11523 20.6545L1.4958 19.6304Z" fill="#FF8F00"/>
</g>
<path id="Vector_5" opacity="0.44" d="M1.00098 22.4745C0.960278 22.3845 0.960278 22.2825 1.00302 22.1945L6.18644 11.6302L7.03916 14.7803L1.58506 22.5225C1.43853 22.7385 1.10884 22.7105 1.00098 22.4745Z" fill="#FFFDE7"/>
<path id="Vector_6" d="M7.45038 15.8384C9.87216 18.6224 12.6297 18.2744 13.5476 17.5704C14.4674 16.8644 15.194 14.4383 12.7824 11.7003C10.2548 8.83221 7.3934 9.65023 6.73198 10.2702C6.07057 10.8903 5.22804 13.2843 7.45038 15.8384Z" fill="url(#paint0_linear_32_1263)"/>
<path id="Vector_7" d="M15.768 16.9844C14.8848 16.2563 14.4147 16.3863 13.7838 16.6443C12.9697 16.9764 11.6896 17.2224 9.95166 16.6443L10.4747 15.4063C11.5065 15.7483 12.2534 15.5823 12.8985 15.2083C13.7288 14.7283 14.8644 14.0703 16.6309 15.5283C17.3676 16.1363 18.1226 16.5403 18.6762 16.3563C19.0791 16.2243 19.2928 15.6343 19.4007 15.1643C19.4109 15.1223 19.4271 15.0023 19.4394 14.8963C19.537 14.1623 19.6998 12.5783 20.9006 11.7682C22.1847 10.9022 23.534 10.9022 23.534 10.9022L23.7782 13.2863C23.1575 13.1963 22.7261 13.3203 22.3618 13.5183C20.9901 14.2683 22.1847 17.1484 20.0499 18.1164C17.9965 19.0544 16.3175 17.4364 15.768 16.9844Z" fill="#03A9F4"/>
<path id="Vector_8" d="M8.21356 13.9443L7.33032 13.1663C8.9523 11.3862 8.52493 10.0782 8.21356 9.1262C8.15047 8.93419 8.09145 8.75219 8.05278 8.57819C7.9144 7.96217 7.8859 7.42616 7.92864 6.95815C7.3059 6.19614 7.03116 5.39812 7.01284 5.34412C6.63431 4.21809 6.91923 3.12007 7.5725 2.09005C8.89328 0 11.2845 0 11.2845 0L12.0823 2.09805C11.4758 2.07405 9.48754 2.10405 8.877 3.05007C8.1057 4.24209 8.61244 4.97811 8.64907 5.06211C8.79763 4.87211 8.94823 4.7201 9.08255 4.6021C10.0574 3.75208 10.904 3.63008 11.4433 3.67808C12.0497 3.73208 12.5992 4.03209 12.992 4.5241C13.4214 5.06411 13.5985 5.76613 13.4621 6.40414C13.3298 7.02615 12.9086 7.55216 12.2756 7.88617C11.1706 8.47018 10.2507 8.39018 9.63406 8.18818C9.63814 8.20218 9.64017 8.21818 9.64424 8.23218C9.66663 8.33218 9.7114 8.47218 9.76431 8.63419C10.1245 9.73021 10.7941 11.4703 8.21356 13.9443ZM9.70936 6.43814C9.8274 6.52214 9.95154 6.59214 10.0798 6.64214C10.5071 6.81015 10.9732 6.75415 11.5023 6.47414C11.8137 6.31014 11.8503 6.13413 11.8625 6.07613C11.8991 5.90213 11.8381 5.68012 11.7058 5.51412C11.5898 5.36812 11.4555 5.29212 11.2947 5.27611C10.9894 5.25011 10.5763 5.44012 10.1632 5.80213C9.96579 5.97613 9.81519 6.19013 9.70936 6.43814Z" fill="#F44336"/>
<path id="Vector_9" d="M11.7487 14.2703L10.4849 14.2363C10.4849 14.2363 11.0852 10.9042 13.0288 10.3442C13.393 10.2402 13.7919 10.1342 14.1928 10.0762C14.4309 10.0402 14.8074 9.98619 14.9926 9.91819C15.0354 9.60419 14.9011 9.20418 14.7505 8.75017C14.6324 8.39816 14.5103 8.03615 14.4452 7.64014C14.319 6.86813 14.5286 6.18611 15.0354 5.7161C15.654 5.14609 16.6533 4.96409 17.7807 5.21609C18.4238 5.36009 18.898 5.6701 19.3152 5.94211C19.9115 6.33211 20.2595 6.53012 20.9881 6.04811C21.8693 5.4641 20.7174 3.17805 20.1048 1.85802L22.3903 0.921997C22.6976 1.58201 24.1812 4.97809 23.2023 6.91613C22.8726 7.56814 22.3048 8.00015 21.5599 8.16215C19.94 8.51816 18.9916 7.89815 18.2997 7.44614C17.972 7.23213 17.6851 7.06413 17.3737 6.97613C15.2104 6.37012 18.2305 9.49818 16.8161 10.9042C15.9675 11.7462 13.8937 11.9682 13.7594 12.0002C12.4243 12.3162 11.7487 14.2703 11.7487 14.2703Z" fill="#F48FB1"/>
<path id="Vector_10" d="M7.92699 6.95813C7.88832 7.39814 7.87001 7.66014 7.98601 8.23216C8.54567 8.63617 9.7647 8.63617 9.7647 8.63617C9.71178 8.47416 9.66498 8.33416 9.64463 8.23416C9.64056 8.22016 9.63852 8.20416 9.63445 8.19016C8.39507 7.58214 7.92699 6.95813 7.92699 6.95813Z" fill="#C92B27"/>
<path id="Vector_11" d="M5.39093 8.9282L3.28662 7.91418L4.3347 6.42615L5.98518 7.50017L5.39093 8.9282Z" fill="#FFC107"/>
<path id="Vector_12" d="M2.2895 6.12014C1.21496 5.97813 0.120072 5.08211 0 4.98011L1.05622 3.76208C1.37574 4.02809 2.05343 4.4741 2.50726 4.5341L2.2895 6.12014Z" fill="#FB8C00"/>
<path id="Vector_13" d="M4.18633 3.45411L2.63965 2.95609C2.8167 2.42408 2.86351 1.85007 2.77193 1.29606L4.37967 1.04205C4.51195 1.84607 4.44479 2.68009 4.18633 3.45411Z" fill="#03A9F4"/>
<path id="Vector_14" d="M13.8457 2.26501L15.4362 1.92309L15.8954 3.98634L14.305 4.32827L13.8457 2.26501Z" fill="#FB8C00"/>
<path id="Vector_15" d="M17.7912 2.75403L16.6719 1.592C17.258 1.04599 17.3923 0.331975 17.3923 0.323975L19 0.58198C18.9797 0.707983 18.7741 1.84001 17.7912 2.75403Z" fill="#FFC107"/>
<path id="Vector_16" d="M18.4131 8.91644L19.835 8.47972L20.3207 10.007L18.8987 10.4437L18.4131 8.91644Z" fill="#FB8C00"/>
<path id="Vector_17" d="M18.8266 21.8065L17.2087 21.6185C17.2779 21.0525 16.8485 20.3585 16.7305 20.2045L18.0329 19.2444C18.1306 19.3704 18.9793 20.5245 18.8266 21.8065Z" fill="#F44336"/>
<path id="Vector_18" d="M23.4711 19.7785C22.8626 19.6885 22.2399 19.6525 21.6253 19.6745L21.5703 18.0744C22.2846 18.0504 23.0071 18.0904 23.7133 18.1964L23.4711 19.7785Z" fill="#FB8C00"/>
<path id="Vector_19" d="M21.2817 21.9809L22.4256 20.8423L23.9998 22.3698L22.8559 23.5084L21.2817 21.9809Z" fill="#F48FB1"/>
<path id="Vector_20" d="M17.9209 11.8665L19.0972 13.1883L17.7522 14.3443L16.576 13.0225L17.9209 11.8665Z" fill="#F44336"/>
</g>
<defs>
<linearGradient id="paint0_linear_32_1263" x1="14.1122" y1="11.568" x2="8.1104" y2="15.2322" gradientUnits="userSpaceOnUse">
<stop offset="0.0235" stop-color="#8F4700"/>
<stop offset="1" stop-color="#703E2D"/>
</linearGradient>
</defs>
</svg>
