<svg width="24" height="24" viewBox="0 0 24 24" fill="none" xmlns="http://www.w3.org/2000/svg">
<g id="rocket-icon">
<path id="Vector" d="M2.04073 18.4869C0.104167 20.4392 0 23.9976 0 23.9976C0 23.9976 3.52747 23.8926 5.4664 21.9403C7.40533 19.9881 8.20789 17.6325 7.26091 16.6803C6.31394 15.7257 3.97729 16.5347 2.04073 18.4869Z" fill="url(#paint0_linear_42_1746)"/>
<path id="Vector_2" opacity="0.2" d="M6.15532 16.7567C6.49387 16.7567 6.75192 16.845 6.92474 17.0168C7.57578 17.6731 6.99813 19.7184 5.13022 21.6038C3.78079 22.9642 1.5341 23.3651 0.5161 23.4797C0.629737 22.4535 1.02747 20.1886 2.37453 18.8282C3.62217 17.5681 5.10655 16.7567 6.15532 16.7567ZM6.15532 16.2794C5.01659 16.2794 3.42567 17.0908 2.04073 18.4893C0.104167 20.4416 0 24 0 24C0 24 3.52747 23.895 5.4664 21.9427C7.40533 19.9905 8.20789 17.6349 7.26091 16.6827C6.99103 16.4058 6.60987 16.2794 6.15532 16.2794Z" fill="#424242"/>
<path id="Vector_3" d="M2.62792 19.1743C1.4087 20.4034 1.34241 22.642 1.34241 22.642C1.34241 22.642 3.56306 22.5752 4.78229 21.3461C6.00151 20.117 6.50814 18.6326 5.91155 18.0335C5.31496 17.4345 3.84952 17.9428 2.62792 19.1743Z" fill="url(#paint1_linear_42_1746)"/>
<path id="Vector_4" d="M5.12784 19.1958C6.28788 20.444 7.81014 20.3127 7.93561 20.1075L8.99622 18.37C9.06014 18.265 9.00096 18.098 8.95598 18.055L6.09375 15.1696C6.04877 15.1243 5.89015 15.0718 5.78599 15.1362L4.0625 16.2054C3.86126 16.3319 3.63399 17.5848 5.12784 19.1958Z" fill="#546E7A"/>
<path id="Vector_5" d="M12.9215 22.37C12.6847 22.5633 12.3675 22.5204 12.3273 22.234C12.216 21.4416 12.2894 19.8498 11.2998 18.8522C10.3339 17.8784 8.76428 17.7353 8.76428 17.7353L14.6734 14.7997C14.6734 14.7997 15.7861 16.53 15.1729 18.993C14.6616 21.0287 13.788 21.6564 12.9215 22.37Z" fill="#0288D1"/>
<path id="Vector_6" opacity="0.2" d="M14.3395 15.7615C14.3821 15.8785 14.4271 16.0121 14.4674 16.1601C14.6283 16.752 14.7633 17.6947 14.4816 18.8164C14.1241 20.2531 13.589 20.8688 12.9617 21.4082C12.8812 20.4965 12.706 19.2555 11.7993 18.3438C11.4678 18.0097 11.0796 17.7567 10.6984 17.5682L14.3395 15.7615ZM14.6709 14.7997L8.76184 17.7353C8.76184 17.7353 10.3338 17.8808 11.2974 18.8522C12.2869 19.8498 12.2136 21.4416 12.3248 22.234C12.3485 22.4034 12.4716 22.4893 12.616 22.4893C12.7155 22.4893 12.8244 22.4488 12.9191 22.37C13.7855 21.6564 14.6591 21.0287 15.1681 18.993C15.786 16.5276 14.6709 14.7997 14.6709 14.7997Z" fill="#424242"/>
<path id="Vector_7" d="M1.68558 11.3845C1.45357 11.585 1.53643 11.9429 1.82052 11.9835C2.60651 12.0957 4.18559 12.0217 5.17517 13.0193C6.14109 13.993 6.34232 15.3725 6.34232 15.3725L9.19744 9.27951C9.19744 9.27951 7.68702 8.56592 5.49004 9.14109C3.97489 9.53965 2.47157 10.7019 1.68558 11.3845Z" fill="#0288D1"/>
<path id="Vector_8" opacity="0.2" d="M7.19467 9.63273C7.59003 9.63273 7.93094 9.67568 8.20083 9.72819L6.42525 13.5229C6.23586 13.1816 5.99201 12.8308 5.67714 12.5157C4.8367 11.6685 3.71928 11.4561 2.83859 11.3654C3.60327 10.7783 4.64258 10.1053 5.66531 9.83559C6.17667 9.69955 6.6904 9.63273 7.19467 9.63273ZM7.19467 8.91675C6.69514 8.91675 6.11985 8.97641 5.49012 9.14109C3.97496 9.53965 2.47401 10.7019 1.68802 11.3845C1.45601 11.585 1.53887 11.9429 1.82296 11.9835C2.60895 12.0957 4.18803 12.0217 5.17761 13.0193C6.14353 13.993 6.34476 15.3725 6.34476 15.3725L9.19752 9.27951C9.19752 9.27951 8.43047 8.91675 7.19467 8.91675Z" fill="#424242"/>
<path id="Vector_9" opacity="0.2" d="M5.8523 15.9381L8.20079 18.3056L7.45978 19.5204C7.43611 19.5227 7.41007 19.5227 7.38166 19.5227C7.15202 19.5227 6.35183 19.4631 5.64633 18.7041C4.75381 17.7423 4.61413 16.9906 4.62597 16.697L5.8523 15.9381ZM5.90201 15.1052C5.86177 15.1052 5.82152 15.1147 5.78601 15.1338L4.06252 16.203C3.85892 16.3295 3.63165 17.5824 5.1255 19.1934C5.88544 20.012 6.80164 20.2387 7.37929 20.2387C7.68232 20.2387 7.89066 20.1767 7.93327 20.1051L8.99388 18.3676C9.0578 18.2626 8.99861 18.0956 8.95363 18.0526L6.09378 15.1696C6.06537 15.141 5.98487 15.1052 5.90201 15.1052Z" fill="#424242"/>
<path id="Vector_10" d="M16.6952 1.32263C17.654 1.76654 18.9466 2.53025 20.18 3.77366C20.6156 4.21279 20.9873 4.66147 21.3093 5.1006C21.9319 5.94784 22.3581 6.7569 22.6374 7.38935C22.0148 9.03848 20.8406 10.9573 19.6923 12.1148C15.0025 16.8426 9.82252 19.5419 7.14259 17.6302C6.98634 17.518 6.83246 17.4154 6.69278 17.2889C4.394 15.2054 7.02659 9.24134 11.8088 4.42043C13.0091 3.21042 15.0096 1.97417 16.6952 1.32263Z" fill="url(#paint2_radial_42_1746)"/>
<path id="Vector_11" d="M15.4475 10.2938C16.6111 10.2938 17.5545 9.34281 17.5545 8.16972C17.5545 6.99663 16.6111 6.04565 15.4475 6.04565C14.2838 6.04565 13.3405 6.99663 13.3405 8.16972C13.3405 9.34281 14.2838 10.2938 15.4475 10.2938Z" fill="#455A64"/>
<path id="Vector_12" opacity="0.2" d="M15.4475 6.52297C15.8831 6.52297 16.2951 6.69481 16.6028 7.00506C16.9106 7.31532 17.081 7.73059 17.081 8.16972C17.081 8.60885 16.9106 9.02412 16.6028 9.33438C16.2951 9.64463 15.8831 9.81647 15.4475 9.81647C15.0119 9.81647 14.6 9.64463 14.2922 9.33438C13.6554 8.69238 13.6554 7.64706 14.2922 7.00506C14.6 6.69481 15.0095 6.52297 15.4475 6.52297ZM15.4475 6.04565C14.9077 6.04565 14.368 6.25329 13.956 6.66855C13.1322 7.49909 13.1322 8.84274 13.956 9.67327C14.368 10.0885 14.9077 10.2962 15.4475 10.2962C15.9873 10.2962 16.5271 10.0885 16.939 9.67327C17.7629 8.84274 17.7629 7.49909 16.939 6.66855C16.5271 6.25329 15.9873 6.04565 15.4475 6.04565Z" fill="#424242"/>
<path id="Vector_13" d="M11.1009 14.3582C11.9429 14.3582 12.6255 13.67 12.6255 12.8212C12.6255 11.9724 11.9429 11.2842 11.1009 11.2842C10.2589 11.2842 9.57629 11.9724 9.57629 12.8212C9.57629 13.67 10.2589 14.3582 11.1009 14.3582Z" fill="#455A64"/>
<path id="Vector_14" d="M16.6951 1.32262C16.2572 3.50157 20.0735 7.7688 22.6374 7.38933C23.4352 5.31061 23.7619 3.90013 23.9797 1.47297C24.091 0.243876 23.7335 -0.106953 22.6042 0.0266964C19.6094 0.379912 18.4257 0.609024 16.6951 1.32262Z" fill="#E53935"/>
<g id="Group">
<path id="Vector_15" opacity="0.2" d="M23.0091 0.716404C23.1511 0.716404 23.2221 0.73311 23.2482 0.742657C23.2671 0.785615 23.3145 0.952677 23.2742 1.40852C23.0635 3.75931 22.7605 5.0958 21.9769 7.13395C21.3755 8.72103 20.2297 10.5611 19.1904 11.6088C15.5659 15.2627 11.759 17.5347 9.25428 17.5347C8.57956 17.5347 8.00664 17.37 7.5521 17.0455L7.47397 16.9906C7.35323 16.907 7.25143 16.8331 7.1662 16.7567C6.78268 16.4082 6.57908 15.876 6.56014 15.1744C6.49385 12.6207 8.85655 8.406 12.3083 4.92635C13.3902 3.83568 15.2983 2.62806 16.9461 1.99323L16.9603 1.98607C18.634 1.29635 19.7988 1.07917 22.6824 0.737884C22.8078 0.723564 22.9167 0.716404 23.0091 0.716404ZM23.0091 0.000427246C22.8859 0.000427246 22.7534 0.00997375 22.6042 0.0266799C19.6094 0.379895 18.4257 0.609008 16.6951 1.3226C15.0095 1.97175 13.009 3.208 11.8087 4.41801C7.02653 9.23892 4.39394 15.203 6.69272 17.2865C6.83003 17.4106 6.98391 17.5156 7.14253 17.6278C7.73439 18.0502 8.44935 18.2483 9.25428 18.2483C12.0905 18.2483 16.0393 15.7973 19.6947 12.1148C20.8429 10.9573 22.0171 9.03845 22.6397 7.38931C23.4376 5.31059 23.7643 3.90012 23.9821 1.47295C24.0744 0.406148 23.8187 0.000427246 23.0091 0.000427246Z" fill="#424242"/>
<path id="Vector_16" opacity="0.2" d="M11.1008 11.7616C11.3825 11.7616 11.6453 11.8713 11.8442 12.0718C12.043 12.2723 12.1519 12.5372 12.1519 12.8212C12.1519 13.1052 12.043 13.3701 11.8442 13.5706C11.6453 13.7711 11.3825 13.8809 11.1008 13.8809C10.8191 13.8809 10.5563 13.7711 10.3574 13.5706C10.1586 13.3701 10.0497 13.1052 10.0497 12.8212C10.0497 12.5372 10.1586 12.2723 10.3574 12.0718C10.5587 11.8713 10.8214 11.7616 11.1008 11.7616ZM11.1008 11.2842C10.7102 11.2842 10.3219 11.4346 10.0236 11.7353C9.42939 12.3343 9.42939 13.3081 10.0236 13.9071C10.3219 14.2078 10.7102 14.3582 11.1008 14.3582C11.4914 14.3582 11.8797 14.2078 12.178 13.9071C12.7722 13.3081 12.7722 12.3343 12.178 11.7353C11.882 11.4346 11.4914 11.2842 11.1008 11.2842Z" fill="#424242"/>
</g>
</g>
<defs>
<linearGradient id="paint0_linear_42_1746" x1="7.65485" y1="20.138" x2="-0.00236738" y2="20.138" gradientUnits="userSpaceOnUse">
<stop stop-color="#FF6D00"/>
<stop offset="0.2487" stop-color="#FF9B00"/>
<stop offset="0.5135" stop-color="#FFC600"/>
<stop offset="0.721" stop-color="#FFE000"/>
<stop offset="0.8439" stop-color="#FFEA00"/>
</linearGradient>
<linearGradient id="paint1_linear_42_1746" x1="5.05809" y1="18.8559" x2="1.06091" y2="22.9416" gradientUnits="userSpaceOnUse">
<stop offset="0.0044475" stop-color="#C62828"/>
<stop offset="0.2711" stop-color="#D75327"/>
<stop offset="0.5983" stop-color="#E98126"/>
<stop offset="0.8504" stop-color="#F59D25"/>
<stop offset="0.9953" stop-color="#F9A825"/>
</linearGradient>
<radialGradient id="paint2_radial_42_1746" cx="0" cy="0" r="1" gradientUnits="userSpaceOnUse" gradientTransform="translate(16.1957 4.66625) rotate(180) scale(8.63473 8.70461)">
<stop offset="0.0112" stop-color="#F5F5F5"/>
<stop offset="0.9995" stop-color="#BDBDBD"/>
</radialGradient>
</defs>
</svg>
